<?xml version="1.0" encoding="UTF-8" standalone="no"?>
<!-- Created with Inkscape (http://www.inkscape.org/) -->

<svg
   xmlns:dc="http://purl.org/dc/elements/1.1/"
   xmlns:cc="http://creativecommons.org/ns#"
   xmlns:rdf="http://www.w3.org/1999/02/22-rdf-syntax-ns#"
   xmlns:svg="http://www.w3.org/2000/svg"
   xmlns="http://www.w3.org/2000/svg"
   xmlns:sodipodi="http://sodipodi.sourceforge.net/DTD/sodipodi-0.dtd"
   xmlns:inkscape="http://www.inkscape.org/namespaces/inkscape"
   width="48"
   height="24"
   id="svg32934"
   version="1.1"
   inkscape:version="0.48.4 r9939"
   sodipodi:docname="tab-top-backdrop-4.svg">
  <defs
     id="defs32936" />
  <sodipodi:namedview
     id="base"
     pagecolor="#3b4953"
     bordercolor="#666666"
     borderopacity="1.0"
     inkscape:pageopacity="1"
     inkscape:pageshadow="2"
     inkscape:zoom="12.120099"
     inkscape:cx="17.614346"
     inkscape:cy="5.1633233"
     inkscape:current-layer="layer1"
     showgrid="true"
     inkscape:grid-bbox="true"
     inkscape:document-units="px"
     inkscape:window-width="1366"
     inkscape:window-height="702"
     inkscape:window-x="0"
     inkscape:window-y="339"
     inkscape:window-maximized="1">
    <inkscape:grid
       type="xygrid"
       id="grid2987"
       empspacing="5"
       visible="true"
       enabled="true"
       snapvisiblegridlinesonly="true" />
  </sodipodi:namedview>
  <metadata
     id="metadata32939">
    <rdf:RDF>
      <cc:Work
         rdf:about="">
        <dc:format>image/svg+xml</dc:format>
        <dc:type
           rdf:resource="http://purl.org/dc/dcmitype/StillImage" />
        <dc:title></dc:title>
      </cc:Work>
    </rdf:RDF>
  </metadata>
  <g
     id="layer1"
     inkscape:label="Layer 1"
     inkscape:groupmode="layer"
     transform="translate(0,8)">
    <path
       style="opacity:1;fill:#262626;fill-opacity:1;stroke:none"
       d="m 0,16.296662 c 0,0 2.117383,-2.059834 2.9465229,-3.31272 2.8854849,-4.3601685 4.2086099,-9.8222196 6.8752203,-14.3551159 1.1564238,-1.9658007 2.0993318,-4.3702098 3.9286798,-5.5211986 2.303363,-1.4492241 4.910892,-1.1042397 7.857403,-1.1042397 0.654794,0 1.309547,0 1.964341,0 2.946511,0 5.55404,-0.3449844 7.857403,1.1042397 1.829348,1.1509888 2.772256,3.5553979 3.92868,5.5211986 2.666614,4.5328963 3.989719,9.9949474 6.875232,14.3551159 0.829146,1.252886 2.946511,3.31272 2.946511,3.31272 z"
       id="path4143-6"
       inkscape:connector-curvature="0"
       sodipodi:nodetypes="caaaccaaacc" />
    <path
       style="fill:#393939;fill-opacity:1;stroke:none"
       d="m 1,16 c 0,0 2.1558127,-1.865386 3,-3 2.9378579,-3.948571 4.2849952,-8.8950065 7,-13 1.177428,-1.7802301 2.13745,-3.9576646 4,-5 2.345161,-1.3124182 5,-1 8,-1 0.666667,0 1.333333,0 2,0 3,0 5.654839,-0.3124182 8,1 1.86255,1.0423354 2.822572,3.2197699 4,5 2.715005,4.1049935 4.062142,9.051429 7,13 0.844187,1.134614 3,3 3,3 z"
       id="path4143"
       inkscape:connector-curvature="0"
       sodipodi:nodetypes="caaaccaaacc" />
    <path
       style="fill:#000000;fill-opacity:1;stroke:none;opacity:0.34"
       d="M 1,16 C 1,16 3.1558127,14.134614 4,13 6.937858,9.051429 8.284995,4.104993 11,-9.9999999e-8 12.177428,-1.7802302 13.13745,-3.9576647 15,-5.0000001 c 2.345161,-1.3124182 5,-1 8,-1 0.666667,0 1.333333,0 2,0 3,0 5.654839,-0.3124182 8,1 1.86255,1.0423354 2.822572,3.2197699 4,5.000000000000001 C 39.715005,4.104993 41.062142,9.051429 44,13 c 0.844187,1.134614 3,3 3,3 z"
       id="path4143-8"
       inkscape:connector-curvature="0"
       sodipodi:nodetypes="caaaccaaacc" />
    <path
       style="opacity:0.12;fill:#000000;fill-opacity:1;stroke:none"
       d="m 19.752477,-6.0312498 c 0.384524,0.0064 0.759749,0.03125 1.15625,0.03125 l 2,0 c -1.102192,0 -2.145479,-0.04298 -3.15625,-0.03125 z m 6.3125,0 c 1.740396,0.0202 3.360195,0.201011 4.84375,1.03125 1.86255,1.042335 2.822572,3.21977 4,5.00000000505616 C 37.623732,4.1049932 38.970869,9.0514292 41.908727,13 c 0.844187,1.134614 3,3 3,3 l 2,0 c 0,0 -2.155813,-1.865386 -3,-3 C 40.970869,9.0514292 39.623732,4.1049932 36.908727,2.0505616e-7 35.731299,-1.7802298 34.771277,-3.9576648 32.908727,-4.9999998 c -2.035208,-1.13896 -4.318892,-1.07355 -6.84375,-1.03125 z"
       id="path4143-8-2"
       inkscape:connector-curvature="0" />
  </g>
</svg>
