<?xml version="1.0" encoding="UTF-8" standalone="no"?>
<!-- Generator: Adobe Illustrator 13.0.2, SVG Export Plug-In . SVG Version: 6.00 Build 14948)  -->
<svg xmlns:rdf="http://www.w3.org/1999/02/22-rdf-syntax-ns#" xmlns="http://www.w3.org/2000/svg" enable-background="new 0 0 16 16" xml:space="preserve" height="18" viewBox="0 0 13.090909 13.090909" width="18" version="1.0" y="0px" x="0px" xmlns:cc="http://creativecommons.org/ns#" xmlns:xlink="http://www.w3.org/1999/xlink" xmlns:dc="http://purl.org/dc/elements/1.1/"><metadata><rdf:RDF><cc:Work rdf:about=""><dc:format>image/svg+xml</dc:format><dc:type rdf:resource="http://purl.org/dc/dcmitype/StillImage"/><dc:title/></cc:Work></rdf:RDF></metadata><defs><linearGradient id="linearGradient3835" y2="14.003" gradientUnits="userSpaceOnUse" x2="8" gradientTransform="matrix(1.0102 0 0 1.0796 -.099720 -1.1683)" y1="1.136" x1="7.9644"><stop stop-color="#aaa" stop-opacity=".3" offset="0"/><stop stop-opacity="0" offset=".18601"/><stop stop-opacity="0" offset="1"/></linearGradient><linearGradient id="linearGradient3842" y2="-8" gradientUnits="userSpaceOnUse" x2="14" y1="-8"><stop stop-color="#fff" stop-opacity=".08" offset="0"/><stop stop-opacity=".03" offset="0.4"/><stop stop-opacity=".08" offset="1"/></linearGradient><linearGradient id="linearGradient3841" y2="13.463" gradientUnits="userSpaceOnUse" x2="8" gradientTransform="matrix(1 0 0 1.0667 5.3578e-7 -1.0169)" y1="1.5372" x1="8"><stop stop-color="#161616" offset="0"/><stop stop-color="#222" offset="1"/></linearGradient></defs><g transform="matrix(.72727 0 0 .72727 .74352 1.1095)"><rect style="color:#000000;enable-background:accumulate" rx="1.8876" ry="1.8621" height="12.956" width="13.133" stroke="url(#linearGradient3835)" y=".45116" x="1.4156" stroke-width="1.0444" fill="none"/><rect ry="1.9841" style="color:#000000;enable-background:accumulate" rx="1.9841" transform="rotate(90)" height="14" width="14" y="-15" x="0" fill="url(#linearGradient3842)"/><rect opacity=".4" style="color:#000000;enable-background:accumulate" stroke-opacity="0.54" rx="2.5933" ry="2.5933" height="16.038" width="15.038" stroke="#fff" y="-.54460" x=".44545" stroke-width="1.0131" fill="none"/><rect style="color:#000000;enable-background:accumulate" rx="2.5082" ry="2.5082" height="14.933" width="15" stroke="url(#linearGradient3841)" y="-.48360" x=".5" stroke-width="1.0328" fill="none"/></g><g transform="matrix(.72699 0 0 .72727 1.293 .60202)" fill="#9a9a9a"><g transform="translate(-41,-760)" fill="#9a9a9a"><path style="color:#bebebe;text-indent:0;block-progression:tb;text-decoration-line:none;enable-background:new;text-transform:none" d="m44.226 764.17h1c0.01037-0.00012 0.02079-0.00046 0.03125 0 0.25495 0.0112 0.50987 0.12858 0.6875 0.3125l2.2812 2.2812 2.3125-2.2812c0.26562-0.2305 0.44667-0.3055 0.6875-0.3125h1v1c0 0.28647-0.03434 0.55065-0.25 0.75l-2.2812 2.2812 2.25 2.25c0.18819 0.18817 0.28124 0.45345 0.28125 0.71875v1h-1c-0.2653-0.00001-0.53059-0.0931-0.71875-0.28125l-2.2812-2.2812-2.2812 2.2812c-0.18816 0.18819-0.45346 0.28125-0.71875 0.28125h-1v-1c-0.000003-0.26529 0.09306-0.53058 0.28125-0.71875l2.2812-2.25-2.2812-2.2812c-0.21074-0.19463-0.30316-0.46925-0.28125-0.75v-1z" fill="#9a9a9a"/></g></g></svg>
