<?xml version="1.0" encoding="UTF-8" standalone="no"?>
<svg xmlns:rdf="http://www.w3.org/1999/02/22-rdf-syntax-ns#" xmlns="http://www.w3.org/2000/svg" height="200" width="200" version="1.1" xmlns:cc="http://creativecommons.org/ns#" xmlns:dc="http://purl.org/dc/elements/1.1/" viewBox="0 0 200 200">
 <metadata>
  <rdf:RDF>
   <cc:Work rdf:about="">
    <dc:format>image/svg+xml</dc:format>
    <dc:type rdf:resource="http://purl.org/dc/dcmitype/StillImage"/>
    <dc:title/>
   </cc:Work>
  </rdf:RDF>
 </metadata>
 <defs>
  <filter id="filter4178" style="color-interpolation-filters:sRGB">
   <feGaussianBlur stdDeviation="2 2" result="blur"/>
  </filter>
 </defs>
 <path filter="url(#filter4178)" style="color-rendering:auto;text-decoration-color:#000000;color:#000000;isolation:auto;mix-blend-mode:normal;shape-rendering:auto;solid-color:#000000;block-progression:tb;text-decoration-line:none;image-rendering:auto;white-space:normal;text-indent:0;text-transform:none;text-decoration-style:solid" fill="#fff" d="m37.2 20.7c-9.1151 0-16.5 7.3849-16.5 16.5v130c0 9.115 7.3849 16.5 16.5 16.5h130c9.115 0 16.5-7.385 16.5-16.5v-130c0-9.1151-7.385-16.5-16.5-16.5h-130zm0 3h130c7.505 0 13.5 5.9951 13.5 13.5v130c0 7.505-5.995 13.5-13.5 13.5h-130c-7.5049 0-13.5-5.995-13.5-13.5v-130c0-7.5049 5.9951-13.5 13.5-13.5z"/>
</svg>
