<?xml version="1.0" encoding="UTF-8" standalone="no"?>
<!-- Generator: Adobe Illustrator 13.0.2, SVG Export Plug-In . SVG Version: 6.00 Build 14948)  -->
<svg xmlns:rdf="http://www.w3.org/1999/02/22-rdf-syntax-ns#" xmlns="http://www.w3.org/2000/svg" enable-background="new 0 0 16 16" xml:space="preserve" height="18" viewBox="0 0 13.090909 13.090909" width="18" version="1.0" y="0px" x="0px" xmlns:cc="http://creativecommons.org/ns#" xmlns:xlink="http://www.w3.org/1999/xlink" xmlns:dc="http://purl.org/dc/elements/1.1/"><metadata><rdf:RDF><cc:Work rdf:about=""><dc:format>image/svg+xml</dc:format><dc:type rdf:resource="http://purl.org/dc/dcmitype/StillImage"/><dc:title/></cc:Work></rdf:RDF></metadata><defs><linearGradient id="linearGradient3835-8" y2="14.003" gradientUnits="userSpaceOnUse" x2="8" gradientTransform="matrix(1.0102 0 0 1.0796 -.048932 -1.051)" y1="1.136" x1="7.9644"><stop stop-opacity=".12" offset="0"/><stop stop-opacity="0" offset=".13345"/><stop stop-opacity="0" offset="1"/></linearGradient><linearGradient id="linearGradient3842" y2="-8" gradientUnits="userSpaceOnUse" x2="14" y1="-8"><stop stop-opacity=".2" offset="0"/><stop stop-opacity="0.15" offset="0.4"/><stop stop-opacity=".1" offset="1"/></linearGradient><linearGradient id="linearGradient3835" y2="14.003" xlink:href="#linearGradient4225-8" gradientUnits="userSpaceOnUse" x2="8" gradientTransform="matrix(1.0102 0 0 1.0796 -.099720 -1.1683)" y1="1.136" x1="7.9644"/><linearGradient id="linearGradient4225-8"><stop stop-opacity="0.15" offset="0"/><stop stop-opacity="0.15" offset=".49273"/><stop stop-opacity=".04" offset="1"/></linearGradient><linearGradient id="linearGradient3841" y2="14.735" gradientUnits="userSpaceOnUse" x2="7.9562" gradientTransform="matrix(1 0 0 1.0667 5.3578e-7 -1.0169)" y1=".10054" x1="7.9562"><stop stop-color="#161616" offset="0"/><stop stop-color="#222" offset="0.96"/><stop stop-color="#222" offset="1"/></linearGradient><linearGradient id="linearGradient3835-4" y2="14.003" xlink:href="#linearGradient4225-8" gradientUnits="userSpaceOnUse" x2="8" gradientTransform="matrix(.85654 0 0 .91698 1.1585 .14024)" y1="1.136" x1="7.9644"/></defs><g transform="matrix(.72727 0 0 .72727 .74352 1.1095)"><rect style="color:#000000;enable-background:accumulate" rx="1.8876" ry="1.8621" height="12.956" width="13.133" stroke="url(#linearGradient3835-8)" y=".56850" x="1.4664" stroke-width="1.0444" fill="none"/><rect ry="1.9841" style="color:#000000;enable-background:accumulate" rx="1.9841" transform="rotate(90)" height="14" width="14" y="-15" x="0" fill="url(#linearGradient3842)"/><g fill="none"><rect style="color:#000000;enable-background:accumulate" rx="1.8876" ry="1.8621" height="12.956" width="13.133" stroke="url(#linearGradient3835)" y=".45116" x="1.4156" stroke-width="1.0444"/><rect opacity=".4" style="color:#000000;enable-background:accumulate" stroke-opacity=".5" rx="2.5933" ry="2.5933" height="16.038" width="15.038" stroke="#fff" y="-.54460" x=".44545" stroke-width="1.0131"/><rect style="color:#000000;enable-background:accumulate" rx="2.5082" ry="2.5082" height="14.933" width="15" stroke="url(#linearGradient3841)" y="-.48360" x=".5" stroke-width="1.0328"/><rect style="color:#000000;enable-background:accumulate" rx=".84762" ry=".83762" height="11.004" width="11.135" stroke="url(#linearGradient3835-4)" y="1.5157" x="2.4433" stroke-width=".99629"/></g></g><path opacity=".75" d="m3.6364 4.5685v0.03835 1.4548 2.3267 1.4545h5.8182v-1.4545-2.3267-1.4548-0.03835zm1.4545 1.4932h2.9091v2.3267h-2.9091z" fill="#00070b"/><path d="m3.6364 3.8296v0.038352 1.4554 2.3267 1.4545h5.8182v-1.4545-2.3267-1.4554-0.038349zm1.4545 1.4938h2.9091v2.3267h-2.9091z" fill="#dbdbdb"/></svg>
